<?xml version="1.0" encoding="UTF-8"?>
<svg width="140px" height="394px" viewBox="0 0 140 394" version="1.1" xmlns="http://www.w3.org/2000/svg" xmlns:xlink="http://www.w3.org/1999/xlink">
    <title>Group 4</title>
    <defs>
        <linearGradient x1="49.9983712%" y1="30.2171972%" x2="50.0007168%" y2="88.609815%" id="linearGradient-1">
            <stop stop-color="#1AB0C4" offset="0%"></stop>
            <stop stop-color="#1964D0" offset="100%"></stop>
        </linearGradient>
    </defs>
    <g id="FineAutomations" stroke="none" stroke-width="1" fill="none" fill-rule="evenodd">
        <g id="Artboard" transform="translate(-61.000000, -1574.000000)">
            <g id="Group-4" transform="translate(61.500000, 1574.500000)">
                <rect id="Rectangle" fill="url(#linearGradient-1)" x="137" y="0.5" width="1.965" height="393"></rect>
                <rect id="Rectangle" fill="url(#linearGradient-1)" x="0" y="0.5" width="1.965" height="393"></rect>
                <g id="Group" transform="translate(82.000000, 95.500000)">
                    <rect id="Rectangle" fill="#1AB0C4" x="0" y="0" width="8" height="18" rx="4"></rect>
                    <rect id="Rectangle" fill="#D6D6D6" x="0" y="4" width="8" height="10"></rect>
                </g>
                <g id="Group" transform="translate(75.000000, 49.500000)">
                    <rect id="Rectangle" fill="#1AB0C4" x="0" y="0" width="8" height="18" rx="4"></rect>
                    <rect id="Rectangle" fill="#D6D6D6" x="0" y="4" width="8" height="10"></rect>
                </g>
                <g id="Group" transform="translate(35.000000, 51.500000)">
                    <rect id="Rectangle" fill="#1AB0C4" x="0" y="0" width="8" height="18" rx="4"></rect>
                    <rect id="Rectangle" fill="#D6D6D6" x="0" y="4" width="8" height="10"></rect>
                </g>
                <g id="Group" transform="translate(69.000000, 95.500000)">
                    <rect id="Rectangle" fill="#1AB0C4" x="0" y="0" width="8" height="18" rx="4"></rect>
                    <rect id="Rectangle" fill="#D6D6D6" x="0" y="4" width="8" height="10"></rect>
                </g>
                <g id="Group" transform="translate(63.000000, 228.500000) rotate(-270.000000) translate(-63.000000, -228.500000) translate(59.000000, 219.500000)">
                    <rect id="Rectangle" fill="#1A83CB" x="0" y="0" width="8" height="18" rx="4"></rect>
                    <rect id="Rectangle" fill="#D6D6D6" x="0" y="4" width="8" height="10"></rect>
                </g>
                <g id="Group" transform="translate(63.000000, 212.500000) rotate(-270.000000) translate(-63.000000, -212.500000) translate(59.000000, 203.500000)">
                    <rect id="Rectangle" fill="#1A83CB" x="0" y="0" width="8" height="18" rx="4"></rect>
                    <rect id="Rectangle" fill="#D6D6D6" x="0" y="4" width="8" height="10"></rect>
                </g>
                <rect id="Rectangle" fill="#1AA6C6" x="54" y="134.5" width="46" height="46" rx="5"></rect>
                <rect id="Rectangle" fill="#1A83CB" x="83" y="208.5" width="8.625" height="23" rx="1"></rect>
                <g id="Group" transform="translate(63.000000, 270.500000) rotate(-270.000000) translate(-63.000000, -270.500000) translate(59.000000, 261.500000)">
                    <rect id="Rectangle" fill="#197BCC" x="0" y="0" width="8" height="18" rx="4"></rect>
                    <rect id="Rectangle" fill="#D6D6D6" x="0" y="4" width="8" height="10"></rect>
                </g>
                <g id="Group-Copy" transform="translate(92.000000, 344.500000) rotate(-270.000000) translate(-92.000000, -344.500000) translate(88.000000, 335.500000)">
                    <rect id="Rectangle" fill="#197BCC" x="0" y="0" width="8" height="18" rx="4"></rect>
                    <rect id="Rectangle" fill="#D6D6D6" x="0" y="4" width="8" height="10"></rect>
                </g>
                <g id="Group-Copy" transform="translate(62.000000, 311.500000) rotate(-270.000000) translate(-62.000000, -311.500000) translate(58.000000, 302.500000)">
                    <rect id="Rectangle" fill="#197BCC" x="0" y="0" width="8" height="18" rx="4"></rect>
                    <rect id="Rectangle" fill="#D6D6D6" x="0" y="4" width="8" height="10"></rect>
                </g>
                <g id="Group" transform="translate(63.000000, 254.500000) rotate(-270.000000) translate(-63.000000, -254.500000) translate(59.000000, 245.500000)">
                    <rect id="Rectangle" fill="#197BCC" x="0" y="0" width="8" height="18" rx="4"></rect>
                    <rect id="Rectangle" fill="#D6D6D6" x="0" y="4" width="8" height="10"></rect>
                </g>
                <g id="Group-Copy-2" transform="translate(62.000000, 295.500000) rotate(-270.000000) translate(-62.000000, -295.500000) translate(58.000000, 286.500000)">
                    <rect id="Rectangle" fill="#197BCC" x="0" y="0" width="8" height="18" rx="4"></rect>
                    <rect id="Rectangle" fill="#D6D6D6" x="0" y="4" width="8" height="10"></rect>
                </g>
                <rect id="Rectangle" fill="#197BCC" x="83" y="250.5" width="8.625" height="23" rx="1"></rect>
                <rect id="Rectangle" fill="#1A83CB" x="110" y="227.5" width="8.625" height="23" rx="1"></rect>
                <rect id="Rectangle" fill="#197BCC" x="110" y="270.5" width="8.625" height="23" rx="1"></rect>
                <rect id="Rectangle-Copy" fill="#197BCC" x="82" y="291.5" width="8.625" height="23" rx="1"></rect>
                <rect id="Rectangle" fill="#1AB0C4" transform="translate(79.312500, 83.000000) rotate(-270.000000) translate(-79.312500, -83.000000) " x="75" y="71.5" width="8.625" height="23" rx="1"></rect>
                <rect id="Rectangle" fill="#1AB0C4" transform="translate(20.312500, 109.000000) rotate(-270.000000) translate(-20.312500, -109.000000) " x="16" y="97.5" width="8.625" height="23" rx="1"></rect>
                <rect id="Rectangle" fill="#1AB0C4" transform="translate(112.312500, 44.000000) rotate(-270.000000) translate(-112.312500, -44.000000) " x="108" y="32.5" width="8.625" height="23" rx="1"></rect>
                <rect id="Rectangle" fill="#1AB0C4" transform="translate(86.312500, 28.000000) rotate(-180.000000) translate(-86.312500, -28.000000) " x="82" y="16.5" width="8.625" height="23" rx="1"></rect>
                <polyline id="Path-32" stroke="#1AA0C7" points="79 49.5 79 32.5816733 82 32.5816733"></polyline>
                <line x1="1" y1="1" x2="138" y2="1" id="Path-33" stroke="#1AB0C4"></line>
                <line x1="79" y1="67.5" x2="79" y2="78.6875" id="Path-34" stroke="#199DC7"></line>
                <line x1="113" y1="1" x2="113" y2="39.6875" id="Path-34" stroke="#199DC7"></line>
                <line x1="38.5" y1="0.5" x2="39" y2="52" id="Path-34" stroke="#1AA8BB"></line>
                <line x1="73" y1="95.5" x2="73" y2="87.3125" id="Path-35" stroke="#199DC7"></line>
                <line x1="86" y1="95.5" x2="86" y2="87.3125" id="Path-36" stroke="#199DC7"></line>
                <line x1="106" y1="56.5" x2="106" y2="48.3125" id="Path-35" stroke="#199DC7"></line>
                <line x1="120" y1="56.5" x2="120" y2="48.3125" id="Path-36" stroke="#199DC7"></line>
                <polyline id="Path-37" stroke="#1AB0C4" points="67.1675215 134.5 67.1675215 122.233089 73 122.233089 73 113.5"></polyline>
                <polyline id="Path-38" stroke="#1AB0C4" points="79.3125 134.5 79.3125 121.956567 86 121.956567 86 113.5"></polyline>
                <g id="Group" transform="translate(95.000000, 95.500000)">
                    <rect id="Rectangle" fill="#1AB0C4" x="0" y="0" width="8" height="18" rx="4"></rect>
                    <rect id="Rectangle" fill="#D6D6D6" x="0" y="4" width="8" height="10"></rect>
                </g>
                <polyline id="Path-38" stroke="#1AB0C4" points="92.3125 134.5 92.3125 121.956567 99 121.956567 99 113.5"></polyline>
                <polyline id="Path-38" stroke="#1AB0C4" points="99.3125 95.5 99.3125 82.9565667 106 82.9565667 106 74.5"></polyline>
                <polyline id="Path-39" stroke="#1A83CB" points="72 212.5 77 212.5 77 218.036428 83 218.036428"></polyline>
                <polyline id="Path-40" stroke="#1A83CB" points="72 228.5 77 228.5 77 222.167619 83 222.167619"></polyline>
                <polyline id="Path-39" stroke="#1A83CB" points="72 254.5 77 254.5 77 260.036428 83 260.036428"></polyline>
                <polyline id="Path-40" stroke="#1971CD" points="72 270.5 77 270.5 77 264.167619 83 264.167619"></polyline>
                <polyline id="Path-39" stroke="#1971CD" points="71 295.5 76 295.5 76 301.036428 82 301.036428"></polyline>
                <polyline id="Path-40" stroke="#1971CD" points="71 311.5 76 311.5 76 305.167619 82 305.167619"></polyline>
                <line x1="91.625" y1="220" x2="100.481969" y2="220" id="Path-41" stroke="#1A83CB"></line>
                <polyline id="Path-42" stroke="#1A83CB" points="100.481969 192.972808 100.481969 235.972808 110 235.972808"></polyline>
                <polyline id="Path-43" stroke="#1A83CB" points="91.625 262 100.481969 262 100.481969 243.925876 110 243.925876"></polyline>
                <polyline id="Path-44" stroke="#1971CD" points="100.481969 262 100.481969 279.962474 110 279.962474"></polyline>
                <polyline id="Path-45" stroke="#1971CD" points="90.625 303 100.481969 303 100.481969 286.137357 110 286.137357"></polyline>
                <line x1="118.625" y1="282" x2="137" y2="282" id="Path-46" stroke="#1971CD"></line>
                <line x1="118.625" y1="240.167214" x2="137" y2="240.167214" id="Path-47" stroke="#1A83CB"></line>
                <line x1="90.625" y1="28" x2="113" y2="28" id="Path-49" stroke="#1AA0C7"></line>
                <polyline id="Path-51" stroke="#1989CA" points="72 180.5 72 193.5 62 193.5"></polyline>
                <g id="Group-2" transform="translate(54.000000, 51.500000)" fill="#1AA8BB">
                    <circle id="Oval" cx="5" cy="5" r="5"></circle>
                    <circle id="Oval" cx="5" cy="14" r="5"></circle>
                    <rect id="Rectangle" x="1" y="5" width="8" height="9"></rect>
                </g>
                <g id="Group-2" transform="translate(54.000000, 76.500000)" fill="#1AB0C4">
                    <circle id="Oval" cx="5" cy="5" r="5"></circle>
                    <circle id="Oval" cx="5" cy="14" r="5"></circle>
                    <rect id="Rectangle" x="1" y="5" width="8" height="9"></rect>
                </g>
                <g id="Group-2" transform="translate(106.000000, 113.500000)" fill="#1AB0C4">
                    <circle id="Oval" cx="5" cy="5" r="5"></circle>
                    <circle id="Oval" cx="5" cy="14" r="5"></circle>
                    <rect id="Rectangle" x="1" y="5" width="8" height="9"></rect>
                </g>
                <g id="Group-2" transform="translate(120.000000, 113.500000)" fill="#1AAFC4">
                    <circle id="Oval" cx="5" cy="5" r="5"></circle>
                    <circle id="Oval" cx="5" cy="14" r="5"></circle>
                    <rect id="Rectangle" x="1" y="5" width="8" height="9"></rect>
                </g>
                <g id="Group-2" transform="translate(10.000000, 79.500000)" fill="#1AB0C4">
                    <circle id="Oval" cx="5" cy="5" r="5"></circle>
                    <circle id="Oval" cx="5" cy="14" r="5"></circle>
                    <rect id="Rectangle" x="1" y="5" width="8" height="9"></rect>
                </g>
                <g id="Group-2" transform="translate(22.000000, 79.500000)" fill="#1AB0C4">
                    <circle id="Oval" cx="5" cy="5" r="5"></circle>
                    <circle id="Oval" cx="5" cy="14" r="5"></circle>
                    <rect id="Rectangle" x="1" y="5" width="8" height="9"></rect>
                </g>
                <g id="Group-2" transform="translate(101.000000, 55.500000)" fill="#1AB0C4">
                    <circle id="Oval" cx="5" cy="5" r="5"></circle>
                    <circle id="Oval" cx="5" cy="14" r="5"></circle>
                    <rect id="Rectangle" x="1" y="5" width="8" height="9"></rect>
                </g>
                <g id="Group-2" transform="translate(115.000000, 55.500000)" fill="#1AB0C4">
                    <circle id="Oval" cx="5" cy="5" r="5"></circle>
                    <circle id="Oval" cx="5" cy="14" r="5"></circle>
                    <rect id="Rectangle" x="1" y="5" width="8" height="9"></rect>
                </g>
                <g id="Group-2" transform="translate(107.000000, 180.500000)" fill="#1989CA">
                    <circle id="Oval" cx="5" cy="5" r="5"></circle>
                    <circle id="Oval" cx="5" cy="14" r="5"></circle>
                    <rect id="Rectangle" x="1" y="5" width="8" height="9"></rect>
                </g>
                <g id="Group-2" transform="translate(121.000000, 180.500000)" fill="#1989CA">
                    <circle id="Oval" cx="5" cy="5" r="5"></circle>
                    <circle id="Oval" cx="5" cy="14" r="5"></circle>
                    <rect id="Rectangle" x="1" y="5" width="8" height="9"></rect>
                </g>
                <g id="Group-2" transform="translate(58.000000, 193.000000) rotate(-90.000000) translate(-58.000000, -193.000000) translate(53.000000, 183.500000)" fill="#1989CA">
                    <circle id="Oval" cx="5" cy="5" r="5"></circle>
                    <circle id="Oval" cx="5" cy="14" r="5"></circle>
                    <rect id="Rectangle" x="1" y="5" width="8" height="9"></rect>
                </g>
                <path d="M59.5,51.5 C59.5,51.5 59.5,47.205639 59.5,38.616917 L38.5,38.616917" id="Path-53" stroke="#1AA8BB"></path>
                <line x1="59" y1="70.5" x2="59" y2="76.5" id="Path-54" stroke="#199DC7"></line>
                <polyline id="Path-55" stroke="#1AB0C4" points="59 95.5 59 112.5 39 112.5"></polyline>
                <polyline id="Path-56" stroke="#1AAFC4" points="100 147.774772 111 147.774772 111 132.5"></polyline>
                <polyline id="Path-57" stroke="#1AAFC4" points="111 147.774772 125 147.774772 125 132.5"></polyline>
                <line x1="125" y1="113.5" x2="125" y2="100.5" id="Path-58" stroke="#1AAFC4"></line>
                <polyline id="Path-59" stroke="#1AAFC4" points="111 113.5 111 107.451646 125 107.451646"></polyline>
                <polyline id="Path-60" points="100 164.114576 112 164.114576 112 180.5"></polyline>
                <polyline id="Path-61" stroke="#1989CA" points="100 166.623944 112 166.623944 112 180.5"></polyline>
                <polyline id="Path-62" stroke="#1989CA" points="112 166.623944 126 166.623944 126 180.5"></polyline>
                <polyline id="Path-63" stroke="#1989CA" points="126 199.5 126 211.188655 137 211.188655"></polyline>
                <polyline id="Path-64" stroke="#1989CA" points="112 199.5 112 211.188655 137 211.188655"></polyline>
                <polyline id="Path-22" fill="#FFFFFF" points="82.63982 147.538405 84.6124136 144.5 72.2087163 144.5 60 165.654832 63.1061341 170.5 69.178198 160.484321 81.1374872 160.484321 78.4566062 155.198447 72.2087163 155.198447 75.582389 149.664686 81.1374872 149.664686 90.6666667 165.654832 87.5788288 170.5 84.6124136 165.654832 72.2087163 165.654832 74.1175767 162.911986"></polyline>
                <polyline id="Path-48" stroke="#1AB0C4" points="106 83 120 83 120 74.5"></polyline>
                <circle id="Oval" fill="#1AB0C4" cx="125" cy="97" r="4.5"></circle>
                <line x1="39" y1="69.5" x2="39" y2="114" id="Path-50" stroke="#1AB0C4"></line>
                <line x1="39" y1="73.5" x2="59" y2="73.5" id="Path-52" stroke="#1AA8BB"></line>
                <polyline id="Path-65" stroke="#1A83CB" points="101.062977 192.972808 93.0629765 192.972808 93.0629765 180.5"></polyline>
                <polyline id="Path-66" stroke="#1AB0C4" points="54 142.368752 39 142.368752 39 112.368752"></polyline>
                <polyline id="Path-67" stroke="#1AB0C4" points="54 147.774772 29.2426956 147.774772 29.2426956 139.774772"></polyline>
                <polyline id="Path-67" stroke="#1AB0C4" points="54 152.774772 20 152.774772 20 139.774772"></polyline>
                <polyline id="Path-67" stroke="#1AB0C4" points="54 157.774772 11 157.774772 11 139.774772"></polyline>
                <g id="Group" transform="translate(35.000000, 77.500000)">
                    <rect id="Rectangle" fill="#1AB0C4" x="0" y="0" width="8" height="18" rx="4"></rect>
                    <rect id="Rectangle" fill="#D6D6D6" x="0" y="4" width="8" height="10"></rect>
                </g>
                <g id="Group" transform="translate(16.000000, 122.500000)">
                    <rect id="Rectangle" fill="#1AACC4" x="0" y="0" width="8" height="18" rx="4"></rect>
                    <rect id="Rectangle" fill="#D6D6D6" x="0" y="4" width="8" height="10"></rect>
                </g>
                <g id="Group" transform="translate(7.000000, 122.500000)">
                    <rect id="Rectangle" fill="#1AACC4" x="0" y="0" width="8" height="18" rx="4"></rect>
                    <rect id="Rectangle" fill="#D6D6D6" x="0" y="4" width="8" height="10"></rect>
                </g>
                <g id="Group" transform="translate(16.000000, 187.500000)">
                    <rect id="Rectangle" fill="#1A9BC7" x="0" y="0" width="8" height="18" rx="4"></rect>
                    <rect id="Rectangle" fill="#D6D6D6" x="0" y="4" width="8" height="10"></rect>
                </g>
                <g id="Group" transform="translate(7.000000, 187.500000)">
                    <rect id="Rectangle" fill="#1A9CC8" x="0" y="0" width="8" height="18" rx="4"></rect>
                    <rect id="Rectangle" fill="#D6D6D6" x="0" y="4" width="8" height="10"></rect>
                </g>
                <g id="Group" transform="translate(16.000000, 209.500000)">
                    <rect id="Rectangle" fill="#1A9BC7" x="0" y="0" width="8" height="18" rx="4"></rect>
                    <rect id="Rectangle" fill="#D6D6D6" x="0" y="4" width="8" height="10"></rect>
                </g>
                <g id="Group" transform="translate(7.000000, 209.500000)">
                    <rect id="Rectangle" fill="#1A9CC8" x="0" y="0" width="8" height="18" rx="4"></rect>
                    <rect id="Rectangle" fill="#D6D6D6" x="0" y="4" width="8" height="10"></rect>
                </g>
                <g id="Group" transform="translate(25.000000, 122.500000)">
                    <rect id="Rectangle" fill="#1AACC4" x="0" y="0" width="8" height="18" rx="4"></rect>
                    <rect id="Rectangle" fill="#D6D6D6" x="0" y="4" width="8" height="10"></rect>
                </g>
                <line x1="11" y1="122.5" x2="11" y2="113.3125" id="Path-68" stroke="#1AB0C4"></line>
                <line x1="20" y1="122.5" x2="20" y2="113.3125" id="Path-69" stroke="#1AB0C4"></line>
                <line x1="29" y1="122.5" x2="29" y2="113.3125" id="Path-70" stroke="#1AB0C4"></line>
                <line x1="15" y1="98.5" x2="15" y2="104.6875" id="Path-71" stroke="#1AB0C4"></line>
                <line x1="27" y1="98.5" x2="27" y2="104.5" id="Path-72" stroke="#1AB0C4"></line>
                <line x1="15" y1="73.5" x2="15" y2="79.6875" id="Path-71" stroke="#1AA8BB"></line>
                <line x1="27" y1="73.5" x2="27" y2="79.5" id="Path-72" stroke="#1AA8BB"></line>
                <line x1="82" y1="25" x2="55.5" y2="25" id="Path-74" stroke="#979797"></line>
                <rect id="Rectangle" fill="#199DC7" transform="translate(21.312500, 70.000000) rotate(-270.000000) translate(-21.312500, -70.000000) " x="17" y="58.5" width="8.625" height="23" rx="1"></rect>
                <line x1="21.3125" y1="65.6875" x2="21.3125" y2="24.6875" id="Path-73" stroke="#1AA8BB"></line>
                <circle id="Oval" fill="#1AB0C4" cx="51" cy="25" r="4.5"></circle>
                <circle id="Oval" fill="#1AB0C4" cx="21" cy="23" r="4.5"></circle>
                <g id="Group" transform="translate(68.000000, 24.500000) rotate(-270.000000) translate(-68.000000, -24.500000) translate(64.000000, 15.500000)">
                    <rect id="Rectangle" fill="#1AB0C4" x="0" y="0" width="8" height="18" rx="4"></rect>
                    <rect id="Rectangle" fill="#D6D6D6" x="0" y="4" width="8" height="10"></rect>
                </g>
                <polyline id="Path-75" stroke="#1A9BC8" points="54 172.307288 37 172.307288 37 193.5 48.5 193.5"></polyline>
                <polyline id="Path-76" stroke="#1A9BC8" points="54 166.623944 29.2426956 166.623944 29.2426956 212.5 54 212.5"></polyline>
                <polyline id="Path-76" stroke="#1A9BC8" points="54 162.623944 20 162.623944 20 173.580061 11 173.580061"></polyline>
                <line x1="11" y1="173" x2="11" y2="188" id="Path-77" stroke="#1A9BC8"></line>
                <line x1="20" y1="173.580061" x2="20" y2="188" id="Path-78" stroke="#1A9BC8"></line>
                <line x1="11" y1="205.5" x2="11" y2="209.5" id="Path-79" stroke="#979797"></line>
                <line x1="20" y1="205.5" x2="20" y2="209.5" id="Path-80" stroke="#979797"></line>
                <polyline id="Path-81" stroke="#1A9BC8" points="20 227.5 20 228.5 54 228.5"></polyline>
                <line x1="20" y1="227.5" x2="20" y2="242.315397" id="Path-82" stroke="#1A9BC8"></line>
                <line x1="11" y1="227.5" x2="11" y2="242.315397" id="Path-83" stroke="#1A9BC8"></line>
                <rect id="Rectangle" fill="#1A89CA" transform="translate(15.312500, 246.000000) rotate(-270.000000) translate(-15.312500, -246.000000) " x="11" y="234.5" width="8.625" height="23" rx="1"></rect>
                <rect id="Rectangle" fill="#1968CF" transform="translate(54.312500, 378.000000) rotate(-270.000000) translate(-54.312500, -378.000000) " x="50" y="366.5" width="8.625" height="23" rx="1"></rect>
                <rect id="Rectangle" fill="#1A89CA" x="37" y="251.5" width="8.625" height="23" rx="1"></rect>
                <rect id="Rectangle" fill="#1974CD" x="38" y="292.5" width="8.625" height="23" rx="1"></rect>
                <rect id="Rectangle" fill="#1968CF" x="66" y="332.5" width="8.625" height="23" rx="1"></rect>
                <line x1="45.625" y1="254.5" x2="54" y2="254.5" id="Path-84" stroke="#1A7CCD"></line>
                <line x1="45.625" y1="270.5" x2="54" y2="270.5" id="Path-85" stroke="#1A7CCD"></line>
                <line x1="46.625" y1="295.771268" x2="53" y2="295.771268" id="Path-86" stroke="#1A7CCD"></line>
                <line x1="46.625" y1="311.5" x2="53" y2="311.5" id="Path-87" stroke="#1A7CCD"></line>
                <polyline id="Path-88" stroke="#1A7CCD" points="38 304 15 304 15 250.5"></polyline>
                <line x1="37" y1="263" x2="15.3125" y2="263" id="Path-89" stroke="#1A7CCD"></line>
                <g id="Group-2" transform="translate(9.500000, 273.500000)" fill="#1A7ECC">
                    <circle id="Oval" cx="5" cy="5" r="5"></circle>
                    <circle id="Oval" cx="5" cy="14" r="5"></circle>
                    <rect id="Rectangle" x="1" y="5" width="8" height="9"></rect>
                </g>
                <g id="Group-2" transform="translate(31.500000, 337.000000) rotate(-90.000000) translate(-31.500000, -337.000000) translate(26.500000, 327.500000)" fill="#1968CF">
                    <circle id="Oval" cx="5" cy="5" r="5"></circle>
                    <circle id="Oval" cx="5" cy="14" r="5"></circle>
                    <rect id="Rectangle" x="1" y="5" width="8" height="9"></rect>
                </g>
                <g id="Group-2" transform="translate(31.500000, 350.000000) rotate(-90.000000) translate(-31.500000, -350.000000) translate(26.500000, 340.500000)" fill="#1968CF">
                    <circle id="Oval" cx="5" cy="5" r="5"></circle>
                    <circle id="Oval" cx="5" cy="14" r="5"></circle>
                    <rect id="Rectangle" x="1" y="5" width="8" height="9"></rect>
                </g>
                <g id="Group-2" transform="translate(31.500000, 363.000000) rotate(-90.000000) translate(-31.500000, -363.000000) translate(26.500000, 353.500000)" fill="#1968CF">
                    <circle id="Oval" cx="5" cy="5" r="5"></circle>
                    <circle id="Oval" cx="5" cy="14" r="5"></circle>
                    <rect id="Rectangle" x="1" y="5" width="8" height="9"></rect>
                </g>
                <line x1="15" y1="301.036428" x2="15" y2="336.535558" id="Path-90" stroke="#979797"></line>
                <line x1="15" y1="301.036428" x2="15" y2="336.535558" id="Path-90" stroke="#1964D0"></line>
                <polyline id="Path-91" stroke="#1964D0" points="15 333 15 337 22 337"></polyline>
                <polyline id="Path-92" stroke="#1964D0" points="15 335 15 350 22 350"></polyline>
                <polyline id="Path-93" stroke="#1964D0" points="15 333 15 363 22 363"></polyline>
                <line x1="1.5" y1="392.5" x2="138.5" y2="392.5" id="Path-33" stroke="#1964D0"></line>
                <polyline id="Path-94" stroke="#1964D0" points="41 363 49.8125 363 49.8125 373.6875"></polyline>
                <polyline id="Path-95" stroke="#1964D0" points="41 350 58.835626 350 58.835626 373.6875"></polyline>
                <line x1="54.3125" y1="382.3125" x2="54.3125" y2="392.5" id="Path-96" stroke="#1964D0"></line>
                <line x1="41.3125" y1="337" x2="66" y2="337" id="Path-97" stroke="#1964D0"></line>
                <line x1="53.65625" y1="350" x2="66" y2="350" id="Path-98" stroke="#1964D0"></line>
                <g id="Group" transform="translate(10.500000, 311.500000)">
                    <rect id="Rectangle" fill="#1964D0" x="0" y="0" width="8" height="18" rx="4"></rect>
                    <rect id="Rectangle" fill="#D6D6D6" x="0" y="4" width="8" height="10"></rect>
                </g>
                <g id="Group" transform="translate(122.500000, 346.500000)">
                    <rect id="Rectangle" fill="#1964D0" x="0" y="0" width="8" height="18" rx="4"></rect>
                    <rect id="Rectangle" fill="#D6D6D6" x="0" y="4" width="8" height="10"></rect>
                </g>
                <g id="Group" transform="translate(113.500000, 346.500000)">
                    <rect id="Rectangle" fill="#1964D0" x="0" y="0" width="8" height="18" rx="4"></rect>
                    <rect id="Rectangle" fill="#D6D6D6" x="0" y="4" width="8" height="10"></rect>
                </g>
                <g id="Group" transform="translate(122.500000, 368.500000)">
                    <rect id="Rectangle" fill="#1964D0" x="0" y="0" width="8" height="18" rx="4"></rect>
                    <rect id="Rectangle" fill="#D6D6D6" x="0" y="4" width="8" height="10"></rect>
                </g>
                <g id="Group" transform="translate(113.500000, 368.500000)">
                    <rect id="Rectangle" fill="#1964D0" x="0" y="0" width="8" height="18" rx="4"></rect>
                    <rect id="Rectangle" fill="#D6D6D6" x="0" y="4" width="8" height="10"></rect>
                </g>
                <line x1="117.5" y1="364.5" x2="117.5" y2="368.5" id="Path-79" stroke="#1964D0"></line>
                <line x1="126.5" y1="364.5" x2="126.5" y2="368.5" id="Path-80" stroke="#1964D0"></line>
                <line x1="74.625" y1="344" x2="83" y2="344" id="Path-99" stroke="#1964D0"></line>
                <polyline id="Path-100" stroke="#1964D0" points="101.474786 344.5 117.5 344.5 117.5 346.5"></polyline>
                <polyline id="Path-101" stroke="#1964D0" points="115.761674 344.5 126.5 344.5 126.5 346.5"></polyline>
                <line x1="117.5" y1="386.5" x2="117.5" y2="392.5" id="Path-102" stroke="#1964D0"></line>
                <line x1="126.5" y1="386.5" x2="126.5" y2="392.5" id="Path-103" stroke="#1964D0"></line>
                <g id="Group" transform="translate(122.500000, 301.500000)">
                    <rect id="Rectangle" fill="#1964D0" x="0" y="0" width="8" height="18" rx="4"></rect>
                    <rect id="Rectangle" fill="#D6D6D6" x="0" y="4" width="8" height="10"></rect>
                </g>
                <g id="Group" transform="translate(113.500000, 301.500000)">
                    <rect id="Rectangle" fill="#1964D0" x="0" y="0" width="8" height="18" rx="4"></rect>
                    <rect id="Rectangle" fill="#D6D6D6" x="0" y="4" width="8" height="10"></rect>
                </g>
                <g id="Group" transform="translate(122.500000, 322.500000)">
                    <rect id="Rectangle" fill="#1964D0" x="0" y="0" width="8" height="18" rx="4"></rect>
                    <rect id="Rectangle" fill="#D6D6D6" x="0" y="4" width="8" height="10"></rect>
                </g>
                <g id="Group" transform="translate(113.500000, 322.500000)">
                    <rect id="Rectangle" fill="#1964D0" x="0" y="0" width="8" height="18" rx="4"></rect>
                    <rect id="Rectangle" fill="#D6D6D6" x="0" y="4" width="8" height="10"></rect>
                </g>
                <line x1="117.5" y1="319.108696" x2="117.5" y2="323.021739" id="Path-79" stroke="#1964D0"></line>
                <line x1="126.5" y1="319.108696" x2="126.5" y2="323.021739" id="Path-80" stroke="#1964D0"></line>
                <line x1="117.5" y1="340.630435" x2="117.5" y2="346.5" id="Path-102" stroke="#1964D0"></line>
                <line x1="126.5" y1="340.630435" x2="126.5" y2="346.5" id="Path-103" stroke="#1964D0"></line>
                <polyline id="Path-104" stroke="#1A7BCD" points="117.5 301.5 117.5 296.709632 137.9825 296.709632"></polyline>
                <path d="M126.5,301.5 C126.5,301.227994 126.5,299.631205 126.5,296.709632" id="Path-105" stroke="#1A7BCD"></path>
            </g>
        </g>
    </g>
</svg>