<?xml version="1.0" encoding="UTF-8"?>
<svg width="256px" height="443px" viewBox="0 0 256 443" version="1.1" xmlns="http://www.w3.org/2000/svg" xmlns:xlink="http://www.w3.org/1999/xlink">
    <title>Group 3</title>
    <defs>
        <linearGradient x1="34.9385547%" y1="30.2171972%" x2="56.628285%" y2="88.609815%" id="linearGradient-1">
            <stop stop-color="#1AB0C4" offset="0%"></stop>
            <stop stop-color="#1964D0" offset="100%"></stop>
        </linearGradient>
    </defs>
    <g id="FineAutomations" stroke="none" stroke-width="1" fill="none" fill-rule="evenodd" opacity="0.467509678">
        <g id="Group-3" transform="translate(0.500000, 0.000000)">
            <path d="M88.5,225 L52.5,225 L52.500274,21.9551817 C46.8936431,21.4500817 42.5,16.738136 42.5,11 C42.5,4.92486775 47.4248678,0 53.5,0 C59.5751322,0 64.5,4.92486775 64.5,11 C64.5,16.3919934 60.620446,20.8778683 55.5004156,21.8185474 L55.5,223 L123.5,223 L123.5,225 L90.5,225 L90.5,430 L233.681268,430.000591 C234.621544,424.880062 239.107653,421 244.5,421 C250.575132,421 255.5,425.924868 255.5,432 C255.5,438.075132 250.575132,443 244.5,443 C239.108007,443 234.622132,439.120446 233.681453,434.000416 L88.5,434 L88.5,225 Z M134.5,213 C140.575132,213 145.5,217.924868 145.5,224 C145.5,230.075132 140.575132,235 134.5,235 C128.424868,235 123.5,230.075132 123.5,224 C123.5,217.924868 128.424868,213 134.5,213 Z" id="Combined-Shape" fill="url(#linearGradient-1)"></path>
            <g id="Group" transform="translate(33.500000, 220.000000)">
                <rect id="Rectangle" fill="#1A9BC7" x="0" y="0" width="8" height="18" rx="4"></rect>
                <rect id="Rectangle" fill="#D6D6D6" x="0" y="4" width="8" height="10"></rect>
            </g>
            <g id="Group" transform="translate(26.500000, 174.000000)">
                <rect id="Rectangle" fill="#1AA0C7" x="0" y="0" width="8" height="18" rx="4"></rect>
                <rect id="Rectangle" fill="#D6D6D6" x="0" y="4" width="8" height="10"></rect>
            </g>
            <g id="Group" transform="translate(12.500000, 149.000000) rotate(-270.000000) translate(-12.500000, -149.000000) translate(8.500000, 140.000000)">
                <rect id="Rectangle" fill="#1AA4C6" x="0" y="0" width="8" height="18" rx="4"></rect>
                <rect id="Rectangle" fill="#D6D6D6" x="0" y="4" width="8" height="10"></rect>
            </g>
            <g id="Group" transform="translate(20.500000, 220.000000)">
                <rect id="Rectangle" fill="#1A9CC8" x="0" y="0" width="8" height="18" rx="4"></rect>
                <rect id="Rectangle" fill="#D6D6D6" x="0" y="4" width="8" height="10"></rect>
            </g>
            <g id="Group" transform="translate(14.500000, 353.000000) rotate(-270.000000) translate(-14.500000, -353.000000) translate(10.500000, 344.000000)">
                <rect id="Rectangle" fill="#1A83CB" x="0" y="0" width="8" height="18" rx="4"></rect>
                <rect id="Rectangle" fill="#D6D6D6" x="0" y="4" width="8" height="10"></rect>
            </g>
            <g id="Group" transform="translate(14.500000, 337.000000) rotate(-270.000000) translate(-14.500000, -337.000000) translate(10.500000, 328.000000)">
                <rect id="Rectangle" fill="#1A83CB" x="0" y="0" width="8" height="18" rx="4"></rect>
                <rect id="Rectangle" fill="#D6D6D6" x="0" y="4" width="8" height="10"></rect>
            </g>
            <rect id="Rectangle" fill="#198EC9" x="5.5" y="259" width="46" height="46" rx="5"></rect>
            <rect id="Rectangle" fill="#1A83CB" x="34.5" y="333" width="8.625" height="23" rx="1"></rect>
            <g id="Group" transform="translate(14.500000, 395.000000) rotate(-270.000000) translate(-14.500000, -395.000000) translate(10.500000, 386.000000)">
                <rect id="Rectangle" fill="#197BCC" x="0" y="0" width="8" height="18" rx="4"></rect>
                <rect id="Rectangle" fill="#D6D6D6" x="0" y="4" width="8" height="10"></rect>
            </g>
            <g id="Group-Copy" transform="translate(13.500000, 436.000000) rotate(-270.000000) translate(-13.500000, -436.000000) translate(9.500000, 427.000000)">
                <rect id="Rectangle" fill="#197BCC" x="0" y="0" width="8" height="18" rx="4"></rect>
                <rect id="Rectangle" fill="#D6D6D6" x="0" y="4" width="8" height="10"></rect>
            </g>
            <g id="Group" transform="translate(14.500000, 379.000000) rotate(-270.000000) translate(-14.500000, -379.000000) translate(10.500000, 370.000000)">
                <rect id="Rectangle" fill="#197BCC" x="0" y="0" width="8" height="18" rx="4"></rect>
                <rect id="Rectangle" fill="#D6D6D6" x="0" y="4" width="8" height="10"></rect>
            </g>
            <g id="Group-Copy-2" transform="translate(13.500000, 420.000000) rotate(-270.000000) translate(-13.500000, -420.000000) translate(9.500000, 411.000000)">
                <rect id="Rectangle" fill="#197BCC" x="0" y="0" width="8" height="18" rx="4"></rect>
                <rect id="Rectangle" fill="#D6D6D6" x="0" y="4" width="8" height="10"></rect>
            </g>
            <rect id="Rectangle" fill="#197BCC" x="34.5" y="375" width="8.625" height="23" rx="1"></rect>
            <rect id="Rectangle" fill="#1A83CB" x="61.5" y="352" width="8.625" height="23" rx="1"></rect>
            <rect id="Rectangle" fill="#197BCC" x="61.5" y="395" width="8.625" height="23" rx="1"></rect>
            <rect id="Rectangle-Copy" fill="#197BCC" x="33.5" y="416" width="8.625" height="23" rx="1"></rect>
            <rect id="Rectangle" fill="#199DC7" transform="translate(30.812500, 207.500000) rotate(-270.000000) translate(-30.812500, -207.500000) " x="26.5" y="196" width="8.625" height="23" rx="1"></rect>
            <rect id="Rectangle" fill="#1AA4C6" transform="translate(37.812500, 152.500000) rotate(-180.000000) translate(-37.812500, -152.500000) " x="33.5" y="141" width="8.625" height="23" rx="1"></rect>
            <polyline id="Path-32" stroke="#1AA0C7" points="30.5 174 30.5 157.081673 33.5 157.081673"></polyline>
            <line x1="21.5" y1="149" x2="33.5" y2="149" id="Path-33" stroke="#1AA0C7"></line>
            <line x1="30.5" y1="192" x2="30.5" y2="203.1875" id="Path-34" stroke="#199DC7"></line>
            <line x1="24.5" y1="220" x2="24.5" y2="211.8125" id="Path-35" stroke="#199DC7"></line>
            <line x1="37.5" y1="220" x2="37.5" y2="211.8125" id="Path-36" stroke="#199DC7"></line>
            <polyline id="Path-37" stroke="#1A93C9" points="18.6675215 259 18.6675215 246.733089 24.5 246.733089 24.5 238"></polyline>
            <polyline id="Path-38" stroke="#1A93C9" points="30.8125 259 30.8125 246.456567 37.5 246.456567 37.5 238"></polyline>
            <polyline id="Path-39" stroke="#1A83CB" points="23.5 337 28.5 337 28.5 342.536428 34.5 342.536428"></polyline>
            <polyline id="Path-40" stroke="#1A83CB" points="23.5 353 28.5 353 28.5 346.667619 34.5 346.667619"></polyline>
            <polyline id="Path-39" stroke="#1A83CB" points="23.5 379 28.5 379 28.5 384.536428 34.5 384.536428"></polyline>
            <polyline id="Path-40" stroke="#1971CD" points="23.5 395 28.5 395 28.5 388.667619 34.5 388.667619"></polyline>
            <polyline id="Path-39" stroke="#1971CD" points="22.5 420 27.5 420 27.5 425.536428 33.5 425.536428"></polyline>
            <polyline id="Path-40" stroke="#1971CD" points="22.5 436 27.5 436 27.5 429.667619 33.5 429.667619"></polyline>
            <line x1="43.125" y1="344.5" x2="51.9819686" y2="344.5" id="Path-41" stroke="#1A83CB"></line>
            <polyline id="Path-42" stroke="#1A83CB" points="51.9819686 344.5 51.9819686 360.472808 61.5 360.472808"></polyline>
            <polyline id="Path-43" stroke="#1A83CB" points="43.125 386.5 51.9819686 386.5 51.9819686 368.425876 61.5 368.425876"></polyline>
            <polyline id="Path-44" stroke="#1971CD" points="51.9819686 386.5 51.9819686 404.462474 61.5 404.462474"></polyline>
            <polyline id="Path-45" stroke="#1971CD" points="42.125 427.5 51.9819686 427.5 51.9819686 410.637357 61.5 410.637357"></polyline>
            <line x1="70.125" y1="406.5" x2="88.5" y2="406.5" id="Path-46" stroke="#1971CD"></line>
            <line x1="70.125" y1="364.667214" x2="88.5" y2="364.667214" id="Path-47" stroke="#1A83CB"></line>
            <line x1="42.125" y1="152.5" x2="52.5" y2="152.5" id="Path-49" stroke="#1AA0C7"></line>
            <polyline id="Path-51" stroke="#1989CA" points="23.5 305 23.5 318 13.5 318"></polyline>
            <g id="Group-2" transform="translate(5.500000, 176.000000)" fill="#1AA0C6">
                <circle id="Oval" cx="5" cy="5" r="5"></circle>
                <circle id="Oval" cx="5" cy="14" r="5"></circle>
                <rect id="Rectangle" x="1" y="5" width="8" height="9"></rect>
            </g>
            <g id="Group-2" transform="translate(5.500000, 201.000000)" fill="#199DC7">
                <circle id="Oval" cx="5" cy="5" r="5"></circle>
                <circle id="Oval" cx="5" cy="14" r="5"></circle>
                <rect id="Rectangle" x="1" y="5" width="8" height="9"></rect>
            </g>
            <g id="Group-2" transform="translate(57.500000, 238.000000)" fill="#1A93C9">
                <circle id="Oval" cx="5" cy="5" r="5"></circle>
                <circle id="Oval" cx="5" cy="14" r="5"></circle>
                <rect id="Rectangle" x="1" y="5" width="8" height="9"></rect>
            </g>
            <g id="Group-2" transform="translate(71.500000, 238.000000)" fill="#1A93C9">
                <circle id="Oval" cx="5" cy="5" r="5"></circle>
                <circle id="Oval" cx="5" cy="14" r="5"></circle>
                <rect id="Rectangle" x="1" y="5" width="8" height="9"></rect>
            </g>
            <g id="Group-2" transform="translate(58.500000, 305.000000)" fill="#1989CA">
                <circle id="Oval" cx="5" cy="5" r="5"></circle>
                <circle id="Oval" cx="5" cy="14" r="5"></circle>
                <rect id="Rectangle" x="1" y="5" width="8" height="9"></rect>
            </g>
            <g id="Group-2" transform="translate(72.500000, 305.000000)" fill="#1989CA">
                <circle id="Oval" cx="5" cy="5" r="5"></circle>
                <circle id="Oval" cx="5" cy="14" r="5"></circle>
                <rect id="Rectangle" x="1" y="5" width="8" height="9"></rect>
            </g>
            <g id="Group-2" transform="translate(9.500000, 317.500000) rotate(-90.000000) translate(-9.500000, -317.500000) translate(4.500000, 308.000000)" fill="#1989CA">
                <circle id="Oval" cx="5" cy="5" r="5"></circle>
                <circle id="Oval" cx="5" cy="14" r="5"></circle>
                <rect id="Rectangle" x="1" y="5" width="8" height="9"></rect>
            </g>
            <path d="M11,176 C11,176 11,171.705639 11,163.116917 L3.5,163.116917" id="Path-53" stroke="#1AA0C7"></path>
            <line x1="10.5" y1="195" x2="10.5" y2="201" id="Path-54" stroke="#199DC7"></line>
            <polyline id="Path-55" stroke="#199DC7" points="10.5 220 10.5 236.204008 3.5 236.204008"></polyline>
            <polyline id="Path-56" stroke="#1A93C9" points="51.5 272.274772 62.5 272.274772 62.5 257"></polyline>
            <polyline id="Path-57" stroke="#1A93C9" points="62.5 272.274772 76.5 272.274772 76.5 257"></polyline>
            <line x1="76.5" y1="238" x2="76.5" y2="225" id="Path-58" stroke="#1A93C9"></line>
            <polyline id="Path-59" stroke="#1A93C9" points="62.5 238 62.5 231.951646 76.5 231.951646"></polyline>
            <polyline id="Path-60" points="51.5 288.614576 63.5 288.614576 63.5 305"></polyline>
            <polyline id="Path-61" stroke="#1989CA" points="51.5 291.123944 63.5 291.123944 63.5 305"></polyline>
            <polyline id="Path-62" stroke="#1989CA" points="63.5 291.123944 77.5 291.123944 77.5 305"></polyline>
            <polyline id="Path-63" stroke="#1989CA" points="77.5 324 77.5 335.688655 88.5 335.688655"></polyline>
            <polyline id="Path-64" stroke="#1989CA" points="63.5 324 63.5 335.688655 88.5 335.688655"></polyline>
            <polyline id="Path-22" fill="#FFFFFF" points="34.13982 272.038405 36.1124136 269 23.7087163 269 11.5 290.154832 14.6061341 295 20.678198 284.984321 32.6374872 284.984321 29.9566062 279.698447 23.7087163 279.698447 27.082389 274.164686 32.6374872 274.164686 42.1666667 290.154832 39.0788288 295 36.1124136 290.154832 23.7087163 290.154832 25.6175767 287.411986"></polyline>
        </g>
    </g>
</svg>