<svg width="626" height="216" viewBox="0 0 626 216" fill="none" xmlns="http://www.w3.org/2000/svg">
<path d="M118.816 51.656L130.72 122.696L167.84 51.656H186.911L138.4 141H116.639L99.6155 51.656H118.816ZM220.183 65.608L216.087 88.776H246.167L243.735 102.6H213.655L209.431 126.792H243.351L240.791 141H188.823L204.695 51.528H256.535L254.103 65.608H220.183ZM340.533 141H322.485L292.917 79.688L282.037 141H263.989L279.861 51.528H297.781L327.477 112.968L338.357 51.528H356.277L340.533 141ZM398.689 51.656L388.961 106.824C388.62 109.213 388.449 110.877 388.449 111.816C388.449 116.253 389.772 119.667 392.417 122.056C395.063 124.36 398.817 125.512 403.681 125.512C409.484 125.512 414.22 123.933 417.889 120.776C421.644 117.533 424.076 112.883 425.185 106.824L434.913 51.656H452.961L443.233 106.824C441.868 114.504 439.095 120.989 434.913 126.28C430.732 131.485 425.655 135.411 419.681 138.056C413.793 140.616 407.436 141.896 400.609 141.896C391.564 141.896 384.225 139.549 378.593 134.856C373.047 130.163 370.273 123.421 370.273 114.632C370.273 112.243 370.529 109.64 371.041 106.824L380.769 51.656H398.689ZM495.364 141.896C486.404 141.896 479.022 139.891 473.22 135.88C467.502 131.784 464.644 126.067 464.644 118.728C464.644 117.96 464.729 116.808 464.9 115.272H483.204C482.862 118.856 483.801 121.8 486.02 124.104C488.324 126.408 491.652 127.56 496.004 127.56C500.356 127.56 503.769 126.664 506.244 124.872C508.804 122.995 510.084 120.349 510.084 116.936C510.084 113.779 508.761 111.261 506.116 109.384C503.556 107.507 499.502 105.416 493.956 103.112C488.836 100.979 484.654 99.016 481.412 97.224C478.254 95.432 475.524 92.9573 473.22 89.8C471.001 86.5573 469.892 82.504 469.892 77.64C469.892 72.0933 471.3 67.272 474.116 63.176C477.017 59.08 480.942 55.9227 485.892 53.704C490.926 51.4853 496.644 50.376 503.044 50.376C509.358 50.376 514.82 51.4427 519.428 53.576C524.121 55.624 527.62 58.568 529.924 62.408C532.313 66.248 533.337 70.728 532.996 75.848H513.924L514.052 74.44C514.052 71.624 512.985 69.32 510.852 67.528C508.804 65.736 505.902 64.84 502.148 64.84C498.137 64.84 494.894 65.7787 492.42 67.656C489.945 69.5333 488.708 72.0933 488.708 75.336C488.708 77.4693 489.39 79.3467 490.756 80.968C492.206 82.504 493.956 83.8693 496.004 85.064C498.052 86.1733 500.996 87.624 504.836 89.416C509.87 91.6347 514.009 93.7253 517.252 95.688C520.494 97.6507 523.268 100.253 525.572 103.496C527.876 106.739 529.028 110.707 529.028 115.4C529.028 120.52 527.62 125.085 524.804 129.096C522.073 133.107 518.148 136.264 513.028 138.568C507.993 140.787 502.105 141.896 495.364 141.896Z" fill="white"/>
<path d="M53.0789 176.408L40.5989 203H33.3029L31.7669 184.52L23.6069 203H16.3109L13.2389 176.408H20.0069L21.1589 196.664L29.8469 176.408H36.9509L38.3909 196.616L46.5989 176.408H53.0789ZM63.2909 173.24C62.2349 173.24 61.3869 172.936 60.7469 172.328C60.1069 171.72 59.7869 170.952 59.7869 170.024C59.7869 168.744 60.2669 167.656 61.2269 166.76C62.2189 165.832 63.3709 165.368 64.6829 165.368C65.7069 165.368 66.5389 165.672 67.1789 166.28C67.8189 166.888 68.1389 167.656 68.1389 168.584C68.1389 169.864 67.6589 170.968 66.6989 171.896C65.7389 172.792 64.6029 173.24 63.2909 173.24ZM66.0749 176.408L61.3709 203H54.6029L59.3069 176.408H66.0749ZM81.2583 181.112C82.4103 179.512 83.7543 178.264 85.2903 177.368C86.8263 176.472 88.4903 176.024 90.2823 176.024L89.0343 183.08H87.2583C85.2743 183.08 83.6743 183.512 82.4583 184.376C81.2743 185.24 80.4103 186.712 79.8663 188.792L77.3703 203H70.6023L75.3063 176.408H82.0743L81.2583 181.112ZM109.065 175.976C112.457 175.976 115.145 176.92 117.129 178.808C119.113 180.664 120.105 183.176 120.105 186.344C120.105 187.368 120.025 188.28 119.865 189.08C119.673 190.04 119.465 190.872 119.241 191.576H99.8005C99.7685 191.8 99.7525 192.12 99.7525 192.536C99.7525 194.2 100.233 195.512 101.193 196.472C102.185 197.4 103.481 197.864 105.081 197.864C106.425 197.864 107.577 197.576 108.537 197C109.529 196.392 110.329 195.608 110.937 194.648H118.185C117.001 197.208 115.161 199.32 112.665 200.984C110.201 202.616 107.401 203.432 104.265 203.432C100.873 203.432 98.1525 202.472 96.1045 200.552C94.0565 198.632 93.0325 196.024 93.0325 192.728C93.0325 191.768 93.1285 190.76 93.3205 189.704C93.8005 186.952 94.7765 184.536 96.2485 182.456C97.7525 180.376 99.6085 178.776 101.817 177.656C104.025 176.536 106.441 175.976 109.065 175.976ZM113.193 187.496C113.257 186.984 113.289 186.616 113.289 186.392C113.289 184.856 112.793 183.656 111.801 182.792C110.809 181.928 109.513 181.496 107.913 181.496C106.217 181.496 104.697 182.04 103.353 183.128C102.009 184.184 101.065 185.64 100.521 187.496H113.193ZM137.97 167.48L131.682 203H124.914L131.202 167.48H137.97ZM157.329 175.976C160.721 175.976 163.409 176.92 165.393 178.808C167.377 180.664 168.369 183.176 168.369 186.344C168.369 187.368 168.289 188.28 168.129 189.08C167.937 190.04 167.729 190.872 167.505 191.576H148.065C148.033 191.8 148.017 192.12 148.017 192.536C148.017 194.2 148.497 195.512 149.457 196.472C150.449 197.4 151.745 197.864 153.345 197.864C154.689 197.864 155.841 197.576 156.801 197C157.793 196.392 158.593 195.608 159.201 194.648H166.449C165.265 197.208 163.425 199.32 160.929 200.984C158.465 202.616 155.665 203.432 152.529 203.432C149.137 203.432 146.417 202.472 144.369 200.552C142.321 198.632 141.297 196.024 141.297 192.728C141.297 191.768 141.393 190.76 141.585 189.704C142.065 186.952 143.041 184.536 144.513 182.456C146.017 180.376 147.873 178.776 150.081 177.656C152.289 176.536 154.705 175.976 157.329 175.976ZM161.457 187.496C161.521 186.984 161.553 186.616 161.553 186.392C161.553 184.856 161.057 183.656 160.065 182.792C159.073 181.928 157.777 181.496 156.177 181.496C154.481 181.496 152.961 182.04 151.617 183.128C150.273 184.184 149.329 185.64 148.785 187.496H161.457ZM183.594 203.432C181.642 203.432 179.866 203.112 178.266 202.472C176.698 201.8 175.45 200.888 174.522 199.736C173.626 198.552 173.178 197.208 173.178 195.704C173.178 195.48 173.21 195.112 173.274 194.6H179.802C179.706 195.72 180.042 196.632 180.81 197.336C181.578 198.008 182.666 198.344 184.074 198.344C185.354 198.344 186.41 198.12 187.242 197.672C188.106 197.192 188.538 196.504 188.538 195.608C188.538 194.808 188.138 194.168 187.338 193.688C186.57 193.208 185.338 192.664 183.642 192.056C181.946 191.448 180.538 190.856 179.418 190.28C178.298 189.704 177.338 188.904 176.538 187.88C175.738 186.856 175.338 185.56 175.338 183.992C175.338 182.424 175.786 181.032 176.682 179.816C177.61 178.6 178.89 177.656 180.522 176.984C182.154 176.312 184.026 175.976 186.138 175.976C188.154 175.976 189.93 176.312 191.466 176.984C193.002 177.656 194.186 178.6 195.018 179.816C195.882 181 196.314 182.36 196.314 183.896C196.314 184.28 196.298 184.568 196.266 184.76H190.026C190.122 183.64 189.802 182.744 189.066 182.072C188.33 181.4 187.258 181.064 185.85 181.064C184.698 181.064 183.754 181.32 183.018 181.832C182.282 182.312 181.914 182.968 181.914 183.8C181.914 184.632 182.33 185.32 183.162 185.864C183.994 186.376 185.274 186.952 187.002 187.592C188.73 188.264 190.106 188.888 191.13 189.464C192.186 190.008 193.098 190.776 193.866 191.768C194.634 192.728 195.018 193.944 195.018 195.416C195.018 197.048 194.522 198.472 193.53 199.688C192.538 200.904 191.178 201.832 189.45 202.472C187.722 203.112 185.77 203.432 183.594 203.432ZM212.39 203.432C210.438 203.432 208.662 203.112 207.062 202.472C205.494 201.8 204.246 200.888 203.318 199.736C202.422 198.552 201.974 197.208 201.974 195.704C201.974 195.48 202.006 195.112 202.07 194.6H208.598C208.502 195.72 208.838 196.632 209.606 197.336C210.374 198.008 211.462 198.344 212.87 198.344C214.15 198.344 215.206 198.12 216.038 197.672C216.902 197.192 217.334 196.504 217.334 195.608C217.334 194.808 216.934 194.168 216.134 193.688C215.366 193.208 214.134 192.664 212.438 192.056C210.742 191.448 209.334 190.856 208.214 190.28C207.094 189.704 206.134 188.904 205.334 187.88C204.534 186.856 204.134 185.56 204.134 183.992C204.134 182.424 204.582 181.032 205.478 179.816C206.406 178.6 207.686 177.656 209.318 176.984C210.95 176.312 212.822 175.976 214.934 175.976C216.95 175.976 218.726 176.312 220.262 176.984C221.798 177.656 222.982 178.6 223.814 179.816C224.678 181 225.11 182.36 225.11 183.896C225.11 184.28 225.094 184.568 225.062 184.76H218.822C218.918 183.64 218.598 182.744 217.862 182.072C217.126 181.4 216.054 181.064 214.646 181.064C213.494 181.064 212.55 181.32 211.814 181.832C211.078 182.312 210.71 182.968 210.71 183.8C210.71 184.632 211.126 185.32 211.958 185.864C212.79 186.376 214.07 186.952 215.798 187.592C217.526 188.264 218.902 188.888 219.926 189.464C220.982 190.008 221.894 190.776 222.662 191.768C223.43 192.728 223.814 193.944 223.814 195.416C223.814 197.048 223.318 198.472 222.326 199.688C221.334 200.904 219.974 201.832 218.246 202.472C216.518 203.112 214.566 203.432 212.39 203.432ZM246.926 189.608C247.406 186.92 248.35 184.536 249.758 182.456C251.198 180.376 252.942 178.776 254.99 177.656C257.038 176.536 259.198 175.976 261.47 175.976C263.454 175.976 265.118 176.376 266.462 177.176C267.838 177.976 268.846 178.984 269.486 180.2L270.158 176.408H276.926L272.222 203H265.454L266.174 199.112C265.118 200.36 263.742 201.4 262.046 202.232C260.382 203.032 258.558 203.432 256.574 203.432C254.622 203.432 252.894 203 251.39 202.136C249.886 201.24 248.718 199.992 247.886 198.392C247.054 196.76 246.638 194.872 246.638 192.728C246.638 191.736 246.734 190.696 246.926 189.608ZM267.806 189.704C267.934 188.872 267.998 188.264 267.998 187.88C267.998 185.992 267.438 184.52 266.318 183.464C265.23 182.408 263.854 181.88 262.19 181.88C260.942 181.88 259.726 182.184 258.542 182.792C257.39 183.4 256.382 184.296 255.518 185.48C254.654 186.632 254.078 188.008 253.79 189.608C253.694 190.216 253.646 190.792 253.646 191.336C253.646 193.256 254.19 194.776 255.278 195.896C256.366 196.984 257.742 197.528 259.406 197.528C260.654 197.528 261.87 197.224 263.054 196.616C264.238 195.976 265.246 195.064 266.078 193.88C266.942 192.696 267.518 191.304 267.806 189.704ZM294.481 167.48L288.193 203H281.425L287.713 167.48H294.481ZM298.097 189.608C298.577 186.92 299.521 184.536 300.929 182.456C302.369 180.376 304.113 178.776 306.161 177.656C308.209 176.536 310.369 175.976 312.641 175.976C314.625 175.976 316.289 176.376 317.633 177.176C319.009 177.976 320.017 178.984 320.657 180.2L321.329 176.408H328.097L323.393 203H316.625L317.345 199.112C316.289 200.36 314.913 201.4 313.217 202.232C311.553 203.032 309.729 203.432 307.745 203.432C305.793 203.432 304.065 203 302.561 202.136C301.057 201.24 299.889 199.992 299.057 198.392C298.225 196.76 297.809 194.872 297.809 192.728C297.809 191.736 297.905 190.696 298.097 189.608ZM318.977 189.704C319.105 188.872 319.169 188.264 319.169 187.88C319.169 185.992 318.609 184.52 317.489 183.464C316.401 182.408 315.025 181.88 313.361 181.88C312.113 181.88 310.897 182.184 309.713 182.792C308.561 183.4 307.553 184.296 306.689 185.48C305.825 186.632 305.249 188.008 304.961 189.608C304.865 190.216 304.817 190.792 304.817 191.336C304.817 193.256 305.361 194.776 306.449 195.896C307.537 196.984 308.913 197.528 310.577 197.528C311.825 197.528 313.041 197.224 314.225 196.616C315.409 195.976 316.417 195.064 317.249 193.88C318.113 192.696 318.689 191.304 318.977 189.704ZM343.252 181.112C344.404 179.512 345.748 178.264 347.284 177.368C348.82 176.472 350.484 176.024 352.276 176.024L351.028 183.08H349.252C347.268 183.08 345.668 183.512 344.452 184.376C343.268 185.24 342.404 186.712 341.86 188.792L339.364 203H332.596L337.3 176.408H344.068L343.252 181.112ZM392.466 176.024C395.282 176.024 397.506 176.776 399.138 178.28C400.77 179.784 401.586 181.912 401.586 184.664C401.586 185.688 401.506 186.6 401.346 187.4L398.562 203H391.89L394.482 188.312C394.578 187.736 394.626 187.176 394.626 186.632C394.626 185.096 394.194 183.928 393.33 183.128C392.498 182.296 391.298 181.88 389.73 181.88C387.874 181.88 386.306 182.44 385.026 183.56C383.746 184.648 382.946 186.232 382.626 188.312V188.264L379.986 203H373.314L375.906 188.312C376.002 187.736 376.05 187.192 376.05 186.68C376.05 185.112 375.618 183.928 374.754 183.128C373.89 182.296 372.674 181.88 371.106 181.88C369.346 181.88 367.826 182.408 366.546 183.464C365.298 184.488 364.482 185.96 364.098 187.88L361.41 203H354.642L359.346 176.408H366.114L365.538 179.576C366.594 178.488 367.858 177.624 369.33 176.984C370.802 176.344 372.354 176.024 373.986 176.024C376.066 176.024 377.842 176.472 379.314 177.368C380.786 178.232 381.826 179.48 382.434 181.112C383.554 179.576 385.01 178.344 386.802 177.416C388.626 176.488 390.514 176.024 392.466 176.024ZM433.479 203.432C431.527 203.432 429.751 203.112 428.151 202.472C426.583 201.8 425.335 200.888 424.407 199.736C423.511 198.552 423.063 197.208 423.063 195.704C423.063 195.48 423.095 195.112 423.159 194.6H429.687C429.591 195.72 429.927 196.632 430.695 197.336C431.463 198.008 432.551 198.344 433.959 198.344C435.239 198.344 436.295 198.12 437.127 197.672C437.991 197.192 438.423 196.504 438.423 195.608C438.423 194.808 438.023 194.168 437.223 193.688C436.455 193.208 435.223 192.664 433.527 192.056C431.831 191.448 430.423 190.856 429.303 190.28C428.183 189.704 427.223 188.904 426.423 187.88C425.623 186.856 425.223 185.56 425.223 183.992C425.223 182.424 425.671 181.032 426.567 179.816C427.495 178.6 428.775 177.656 430.407 176.984C432.039 176.312 433.911 175.976 436.023 175.976C438.039 175.976 439.815 176.312 441.351 176.984C442.887 177.656 444.071 178.6 444.903 179.816C445.767 181 446.199 182.36 446.199 183.896C446.199 184.28 446.183 184.568 446.151 184.76H439.911C440.007 183.64 439.687 182.744 438.951 182.072C438.215 181.4 437.143 181.064 435.735 181.064C434.583 181.064 433.639 181.32 432.903 181.832C432.167 182.312 431.799 182.968 431.799 183.8C431.799 184.632 432.215 185.32 433.047 185.864C433.879 186.376 435.159 186.952 436.887 187.592C438.615 188.264 439.991 188.888 441.015 189.464C442.071 190.008 442.983 190.776 443.751 191.768C444.519 192.728 444.903 193.944 444.903 195.416C444.903 197.048 444.407 198.472 443.415 199.688C442.423 200.904 441.063 201.832 439.335 202.472C437.607 203.112 435.655 203.432 433.479 203.432ZM461.027 176.408L464.579 194.984L474.899 176.408H482.051L458.675 215.576H451.523L459.587 202.328L453.491 176.408H461.027ZM493.978 203.432C492.026 203.432 490.25 203.112 488.65 202.472C487.082 201.8 485.834 200.888 484.906 199.736C484.01 198.552 483.562 197.208 483.562 195.704C483.562 195.48 483.594 195.112 483.658 194.6H490.186C490.09 195.72 490.426 196.632 491.194 197.336C491.962 198.008 493.05 198.344 494.458 198.344C495.738 198.344 496.794 198.12 497.626 197.672C498.49 197.192 498.922 196.504 498.922 195.608C498.922 194.808 498.522 194.168 497.722 193.688C496.954 193.208 495.722 192.664 494.026 192.056C492.33 191.448 490.922 190.856 489.802 190.28C488.682 189.704 487.722 188.904 486.922 187.88C486.122 186.856 485.722 185.56 485.722 183.992C485.722 182.424 486.17 181.032 487.066 179.816C487.994 178.6 489.274 177.656 490.906 176.984C492.538 176.312 494.41 175.976 496.522 175.976C498.538 175.976 500.314 176.312 501.85 176.984C503.386 177.656 504.57 178.6 505.402 179.816C506.266 181 506.698 182.36 506.698 183.896C506.698 184.28 506.682 184.568 506.65 184.76H500.41C500.506 183.64 500.186 182.744 499.45 182.072C498.714 181.4 497.642 181.064 496.234 181.064C495.082 181.064 494.138 181.32 493.402 181.832C492.666 182.312 492.298 182.968 492.298 183.8C492.298 184.632 492.714 185.32 493.546 185.864C494.378 186.376 495.658 186.952 497.386 187.592C499.114 188.264 500.49 188.888 501.514 189.464C502.57 190.008 503.482 190.776 504.25 191.768C505.018 192.728 505.402 193.944 505.402 195.416C505.402 197.048 504.906 198.472 503.914 199.688C502.922 200.904 501.562 201.832 499.834 202.472C498.106 203.112 496.154 203.432 493.978 203.432ZM521.67 194.792C521.638 194.984 521.622 195.24 521.622 195.56C521.622 196.2 521.798 196.664 522.15 196.952C522.534 197.208 523.158 197.336 524.022 197.336H527.19L526.182 203H521.91C517.11 203 514.71 201 514.71 197C514.71 196.232 514.774 195.48 514.902 194.744L517.158 181.928H513.99L514.95 176.408H518.166L519.318 169.832H526.086L524.934 176.408H530.838L529.878 181.928H523.926L521.67 194.792ZM550.023 175.976C553.415 175.976 556.103 176.92 558.087 178.808C560.071 180.664 561.063 183.176 561.063 186.344C561.063 187.368 560.983 188.28 560.823 189.08C560.631 190.04 560.423 190.872 560.199 191.576H540.759C540.727 191.8 540.711 192.12 540.711 192.536C540.711 194.2 541.191 195.512 542.151 196.472C543.143 197.4 544.439 197.864 546.039 197.864C547.383 197.864 548.535 197.576 549.495 197C550.487 196.392 551.287 195.608 551.895 194.648H559.143C557.959 197.208 556.119 199.32 553.623 200.984C551.159 202.616 548.359 203.432 545.223 203.432C541.831 203.432 539.111 202.472 537.063 200.552C535.015 198.632 533.991 196.024 533.991 192.728C533.991 191.768 534.087 190.76 534.279 189.704C534.759 186.952 535.735 184.536 537.207 182.456C538.711 180.376 540.567 178.776 542.775 177.656C544.983 176.536 547.399 175.976 550.023 175.976ZM554.151 187.496C554.215 186.984 554.247 186.616 554.247 186.392C554.247 184.856 553.751 183.656 552.759 182.792C551.767 181.928 550.471 181.496 548.871 181.496C547.175 181.496 545.655 182.04 544.311 183.128C542.967 184.184 542.023 185.64 541.479 187.496H554.151ZM603.696 176.024C606.512 176.024 608.736 176.776 610.368 178.28C612 179.784 612.816 181.912 612.816 184.664C612.816 185.688 612.736 186.6 612.576 187.4L609.792 203H603.12L605.712 188.312C605.808 187.736 605.856 187.176 605.856 186.632C605.856 185.096 605.424 183.928 604.56 183.128C603.728 182.296 602.528 181.88 600.96 181.88C599.104 181.88 597.536 182.44 596.256 183.56C594.976 184.648 594.176 186.232 593.856 188.312V188.264L591.216 203H584.544L587.136 188.312C587.232 187.736 587.28 187.192 587.28 186.68C587.28 185.112 586.848 183.928 585.984 183.128C585.12 182.296 583.904 181.88 582.336 181.88C580.576 181.88 579.056 182.408 577.776 183.464C576.528 184.488 575.712 185.96 575.328 187.88L572.64 203H565.872L570.576 176.408H577.344L576.768 179.576C577.824 178.488 579.088 177.624 580.56 176.984C582.032 176.344 583.584 176.024 585.216 176.024C587.296 176.024 589.072 176.472 590.544 177.368C592.016 178.232 593.056 179.48 593.664 181.112C594.784 179.576 596.24 178.344 598.032 177.416C599.856 176.488 601.744 176.024 603.696 176.024Z" fill="white"/>
</svg>
